# xmcd
#
# Track frame offsets: 
#        150
#        11045
#        23475
#        36395
#        47712
#        58885
#        70695
#        83855
#        96105
#        107877
#        119422
#        130937
#        144415
#        154700
#        166120
#
# Disc length: 2374 seconds
#
# Revision: 10
# Processed by: cddbd v1.5.2PL0 Copyright (c) Steve Scherf et al.
# Submitted via: ExactAudioCopyFreeDBPlugin 1.0
#
DISCID=c509440f
DTITLE=Various Artist - CLASSIC COUNTRY 1950 BIS 1959 [DISC 01]
DYEAR=1999
DGENRE=COUNTRY
TTITLE0=EVERLY BROTHERS - BYE BYE LOVE
TTITLE1=JOHNNY CASH - I WALK THE LINE
TTITLE2=JIM REEVES - FOUR WALLS
TTITLE3=SONNY JAMES - YOUNG LOVE
TTITLE4=MARTY ROBBINS - SINGING THE BLUES
TTITLE5=TENNESSEE ERNIE FORD - SIXTEEN TONS
TTITLE6=HANK WILLIAMS - JAMBALAYA (ON THE BAYOU)
TTITLE7=RAY PRICE - RELEASE ME
TTITLE8=PATSY CLINE - WALKIN' AFTER MIDNIGHT
TTITLE9=GEORGE HAMILTON IV - WHY DON'T THEY UNDERSTAND
TTITLE10=RICKY NELSON - POOR LITTLE FOOL
TTITLE11=BOBBY HELMS - MY SPECIAL ANGEL
TTITLE12=JIMMIE RODGERS - HONEYCOMB
TTITLE13=JOHNNY HORTON - THE BATTLE OF NEW ORLEANS
TTITLE14=DON GIBSON - I CAN'T STOP LOVING YOU
EXTD=
EXTT0=
EXTT1=
EXTT2=
EXTT3=
EXTT4=
EXTT5=
EXTT6=
EXTT7=
EXTT8=
EXTT9=
EXTT10=
EXTT11=
EXTT12=
EXTT13=
EXTT14=
PLAYORDER=
